# xmcd CD database file
#
# Track frame offsets:
#	150
#	19954
#	41186
#	62010
#	77294
#	93689
#	109589
#	128531
#	144326
#	161576
#	182690
#	198079
#	224487
#
# Disc length: 3039 seconds
#
# Revision: 0
# Processed by: cddbd v1.5.2PL0 Copyright (c) Steve Scherf et al.
# Submitted via: Feurio! 1.68 - http://www.feurio.com
#
DISCID=ac0bdd0d
DTITLE=Baessler - What I´ve Done
DYEAR=1900
DGENRE=Rock
TTITLE0=What I´ve Done
TTITLE1=While You Are Gone
TTITLE2=It´s Alright
TTITLE3=Breathe
TTITLE4=Keep Me Waiting
TTITLE5=Mine
TTITLE6=No Need To Be Nervous
TTITLE7=A Girl
TTITLE8=My Eyes On You
TTITLE9=Your Love
TTITLE10=Blue Train
TTITLE11=Mein Geheimnis
TTITLE12=Bonus
EXTD=
EXTT0=
EXTT1=
EXTT2=
EXTT3=
EXTT4=
EXTT5=
EXTT6=
EXTT7=
EXTT8=
EXTT9=
EXTT10=
EXTT11=
EXTT12=
PLAYORDER=
